<svg width="316" height="54" viewBox="0 0 316 54" fill="none" xmlns="http://www.w3.org/2000/svg">
<g clip-path="url(#clip0_221_97)">
<path d="M172.16 21.9639C171.591 21.8264 171.05 21.7319 170.554 21.5515C170.022 21.3625 169.408 21.1908 169.05 20.8213C168.443 20.1856 168.728 19.2664 169.535 18.5533C170.407 17.7803 171.527 17.3937 172.546 16.8696C172.848 16.715 173.179 16.5775 173.518 16.5002C173.986 16.3971 174.06 16.1566 173.986 15.7529C173.767 14.5329 173.555 13.3045 173.39 12.076C173.317 11.5262 173.371 10.9593 173.335 10.4009C173.252 9.12944 173.133 7.86662 173.041 6.5952C172.922 4.91144 172.812 3.22767 172.701 1.54391C172.693 1.38928 172.683 1.22605 172.665 1.07142C172.583 0.504435 172.812 0.0834934 173.243 0.00617751C173.601 -0.053957 174.042 0.332622 174.143 0.83088C174.197 1.09719 174.215 1.37209 174.234 1.6384C174.335 3.36513 174.418 5.09184 174.537 6.81856C174.592 7.57454 174.72 8.32192 174.784 9.0779C174.84 9.83388 174.831 10.5899 174.886 11.3458C174.969 12.497 175.088 13.6481 175.188 14.8079C175.207 14.9883 175.207 15.1944 175.134 15.3491C174.904 15.8559 175.069 16.294 175.335 16.7322C175.721 17.3678 175.464 17.763 174.675 17.8575C174.197 17.9177 173.72 18.0551 173.289 18.2527C172.399 18.6565 171.527 19.1032 170.665 19.5585C170.526 19.6273 170.462 19.8162 170.371 19.9537C170.5 20.0138 170.628 20.0911 170.757 20.1255C171.931 20.4262 173.115 20.7097 174.344 20.6838C174.693 20.6752 175.253 21.0361 175.345 21.3282C175.436 21.6202 175.115 22.1873 174.766 22.4192C174.106 22.8659 173.454 23.3298 172.802 23.7765C172.444 24.0171 172.078 24.249 171.738 24.5067C171.234 24.8933 170.757 25.3142 170.242 25.6837C169.746 26.0358 169.233 26.3623 168.701 26.6716C167.526 27.3588 166.352 28.0289 165.158 28.6904C164.36 29.1371 163.552 29.558 162.745 29.979C161.469 30.649 160.212 31.3535 158.918 31.9805C157.964 32.4445 156.945 32.8139 155.954 33.2176C154.936 33.6385 153.936 34.0853 152.898 34.4547C151.788 34.8499 150.651 35.1591 149.522 35.5028C148.338 35.8635 147.154 36.2415 145.952 36.5679C145.162 36.7828 144.346 36.9116 143.548 37.092C143.079 37.1951 142.612 37.3411 142.144 37.4442C141.777 37.5215 141.391 37.5559 141.015 37.6074C139.979 37.7535 138.941 37.9425 137.904 38.0542C135.968 38.2603 134.032 38.372 132.078 38.3204C129.636 38.2603 127.204 38.1315 124.79 37.7363C124.241 37.6504 123.672 37.6246 123.121 37.5129C122.589 37.4013 122.093 37.1694 121.561 37.049C120.258 36.7569 119.074 36.19 117.954 35.5371C117.082 35.0217 116.431 34.2743 116.101 33.295C115.752 32.2555 115.633 31.2074 115.688 30.1422C115.715 29.7126 115.926 29.2917 116.055 28.8621C116.11 28.6904 116.147 28.51 116.201 28.3296C116.257 28.1491 116.266 27.9516 116.367 27.7969C117.064 26.7918 117.753 25.7782 118.487 24.7988C119.772 23.0635 121.469 21.7062 123.258 20.4605C125.277 19.0517 127.406 17.7889 129.673 16.7408C131.407 15.9333 133.178 15.203 134.959 14.4986C136.197 14.009 137.472 13.5622 138.767 13.2015C140.373 12.7547 142.015 12.4369 143.64 12.0417C145.777 11.5262 147.971 11.32 150.154 11.1053C151.201 11.0022 152.265 11.028 153.312 11.0967C154.587 11.1826 155.863 11.3115 157.129 11.5176C158.294 11.7066 159.386 12.1104 160.331 12.8235C161.203 13.4849 161.662 14.3698 161.589 15.3663C161.534 16.0278 161.185 16.7064 160.827 17.3078C160.433 17.9779 159.928 18.6049 159.378 19.1719C158.726 19.8334 157.991 20.4433 157.239 21.0103C156.184 21.8007 155.092 22.5567 153.972 23.2697C153.174 23.7851 152.311 24.2147 151.467 24.6785C150.788 25.0565 150.118 25.4431 149.43 25.8125C148.806 26.1389 148.164 26.4396 147.53 26.7575C146.392 27.3245 145.264 27.9258 144.108 28.467C142.667 29.1456 141.199 29.7642 139.748 30.4343C139.042 30.7607 138.326 30.9153 137.537 30.8381C137.345 30.8208 137.142 30.9583 136.931 30.9926C136.831 31.0098 136.712 30.9755 136.601 30.9669C136.629 30.8638 136.62 30.7177 136.692 30.6662C137.07 30.4085 137.446 30.1422 137.858 29.9274C139.006 29.3432 140.17 28.7849 141.327 28.2093C142.484 27.6337 143.64 27.0581 144.778 26.4654C147.026 25.2885 149.283 24.1202 151.495 22.8831C152.798 22.1528 154.064 21.3625 155.275 20.5035C156.744 19.4554 158.138 18.3128 159.231 16.904C159.698 16.3026 160.231 15.7099 160.139 14.8594C160.093 14.447 159.919 14.1635 159.561 13.9488C158.175 13.0983 156.624 12.7547 155.009 12.6516C153.715 12.5657 152.412 12.5743 151.119 12.6086C149.824 12.643 148.521 12.686 147.246 12.8406C145.916 12.9952 144.593 13.2444 143.291 13.5365C141.621 13.923 139.941 14.3268 138.317 14.8508C136.344 15.4951 134.39 16.2081 132.49 17.0071C130.04 18.0379 127.727 19.3352 125.516 20.7698C123.864 21.835 122.295 22.9776 120.946 24.3778C119.79 25.572 118.817 26.8606 118.138 28.3553C117.651 29.4206 117.248 30.4858 117.349 31.6627C117.413 32.453 117.597 33.2519 118.22 33.8275C118.652 34.2313 119.203 34.5921 119.772 34.7897C121.102 35.245 122.451 35.6745 123.827 35.9666C126.562 36.5508 129.361 36.6883 132.16 36.7484C133.61 36.7828 135.059 36.6367 136.501 36.5508C138.749 36.4219 140.942 35.9409 143.117 35.4254C144.989 34.9873 146.842 34.4719 148.705 33.9822C149.274 33.8361 149.852 33.6815 150.412 33.484C151.981 32.9255 153.541 32.3671 155.092 31.7658C156.147 31.3535 157.203 30.924 158.212 30.4256C159.689 29.6955 161.13 28.888 162.58 28.1062C163.626 27.5478 164.663 26.9722 165.691 26.3966C166.407 25.9929 167.15 25.6149 167.82 25.151C169.223 24.1717 170.6 23.1494 171.977 22.1442C172.032 22.1099 172.078 22.0497 172.16 21.9639Z" fill="black"/>
<path d="M179.41 21.8694C179.603 21.9553 179.795 22.1014 180.015 22.1443C181.264 22.402 182.52 22.6425 183.777 22.8659C185.273 23.1322 186.778 23.3555 188.283 23.6133C188.751 23.6992 189.082 24.1029 189.063 24.4895C189.045 24.8245 188.705 25.1682 188.228 25.2025C187.669 25.2455 187.1 25.1682 186.54 25.2025C185.292 25.2884 184.044 25.3744 182.814 25.5462C181.942 25.6664 181.079 25.8812 180.236 26.1389C179.529 26.3451 178.859 26.6543 178.189 26.9464C177.583 27.2128 176.987 27.4877 176.418 27.8055C175.895 28.089 175.418 28.4498 174.904 28.7419C174.308 29.0855 173.674 29.3604 173.087 29.7127C172.49 30.082 171.83 30.3483 171.298 30.838C170.948 31.1558 170.435 31.3105 170.013 31.5597C169.215 32.0321 168.425 32.539 167.617 32.9942C166.718 33.5012 165.801 33.9822 164.883 34.4632C163.883 34.9787 162.882 35.4941 161.855 35.9666C160.469 36.611 159.065 37.2295 157.652 37.8136C156.945 38.1057 156.184 38.2947 155.468 38.5611C154.505 38.9132 153.568 39.36 152.587 39.6606C151.403 40.0301 150.182 40.2705 148.99 40.597C148.136 40.829 147.31 41.1125 146.466 41.3615C144.997 41.8083 143.529 42.2549 142.061 42.7017C140.969 43.0281 139.895 43.3975 138.795 43.6553C137.748 43.9044 136.674 44.0333 135.61 44.2137C134.583 44.3854 133.545 44.5659 132.518 44.7291C131.636 44.8665 130.747 44.9869 129.865 45.1243C129.553 45.1758 129.251 45.2961 128.929 45.339C128.278 45.4249 127.617 45.4765 126.965 45.5538C126.195 45.6397 125.433 45.7599 124.653 45.8029C123.616 45.8631 122.579 45.8717 121.543 45.8889C120.597 45.906 119.652 45.9318 118.716 45.8974C117.651 45.8544 116.577 45.7858 115.522 45.6655C114.137 45.5109 112.751 45.3304 111.384 45.0813C110.017 44.8322 108.668 44.4628 107.401 43.8786C106.722 43.5694 105.988 43.3546 105.337 43.0024C104.418 42.5041 103.538 41.9457 102.685 41.3615C102.235 41.0523 101.804 40.6915 101.483 40.262C101.005 39.6262 100.546 38.9476 100.252 38.2346C99.8579 37.2552 99.5829 36.2244 99.3347 35.1935C99.2345 34.764 99.3166 34.2915 99.3624 33.8447C99.4541 32.9685 99.5734 32.1008 99.6841 31.2332C99.6927 31.1645 99.7023 31.0872 99.7204 31.0184C100.142 29.6697 100.656 28.3639 101.529 27.1956C101.73 26.9293 101.849 26.6114 102.042 26.3365C102.18 26.1475 102.354 25.9499 102.565 25.8469C103.079 25.6064 103.473 25.8726 103.345 26.4139C103.208 27.0066 102.96 27.5822 102.731 28.1492C102.446 28.8536 102.106 29.5494 101.831 30.2538C101.235 31.7658 101.014 33.3293 101.133 34.9271C101.253 36.5851 101.804 38.0971 103.079 39.2998C103.804 39.987 104.547 40.7087 105.419 41.1984C106.529 41.8255 107.759 42.2808 108.98 42.7103C109.934 43.0454 110.934 43.2944 111.935 43.4663C113.706 43.7669 115.467 44.0848 117.285 44.0934C118.248 44.0934 119.203 44.2223 120.166 44.2309C121.175 44.2309 122.185 44.1621 123.185 44.1106C124.295 44.0504 125.415 44.0333 126.515 43.9044C127.864 43.7498 129.195 43.5178 130.536 43.2944C131.857 43.0711 133.169 42.8134 134.49 42.5815C135.812 42.3494 137.152 42.2035 138.445 41.9028C139.786 41.5935 141.089 41.1382 142.41 40.7602C143.694 40.3908 144.979 40.0386 146.273 39.6864C148.025 39.2053 149.806 38.7758 151.541 38.2346C152.972 37.7879 154.358 37.2209 155.761 36.6968C156.808 36.3016 157.844 35.9065 158.882 35.4941C159.551 35.2192 160.203 34.9186 160.854 34.6007C161.947 34.0681 163.047 33.5527 164.112 32.9771C165.195 32.3929 166.232 31.74 167.287 31.1215C168.839 30.2109 170.389 29.2917 171.931 28.3725C173.95 27.1612 176.014 26.0273 178.208 25.1166C178.996 24.7902 179.841 24.5669 180.667 24.2919C180.832 24.2318 181.006 24.1803 181.181 24.017C180.868 23.9397 180.556 23.8882 180.263 23.7765C179.611 23.5188 178.896 23.3212 178.336 22.9346C177.482 22.3504 177.455 21.3969 178.226 20.7096C178.638 20.3402 179.143 20.0224 179.667 19.8162C180.419 19.5241 181.217 19.2922 182.016 19.1633C182.869 19.0259 183.622 19.3695 184.145 20.0138C184.365 20.2973 184.484 20.6753 184.539 21.0274C184.557 21.165 184.273 21.4227 184.09 21.4742C183.86 21.5344 183.465 21.5172 183.337 21.3711C182.621 20.598 181.777 20.5636 180.841 20.89C180.291 21.0876 179.639 21.1392 179.41 21.8694Z" fill="black"/>
<path d="M149.796 51.7393C150.274 52.1603 150.742 52.272 151.228 52.3234C151.678 52.3665 151.981 52.6069 152.008 52.9678C152.036 53.4059 151.76 53.6894 151.274 53.8011C150.769 53.9128 150.338 53.8612 149.898 53.5605C149.605 53.3544 149.182 53.32 148.861 53.1482C148.558 52.985 148.228 52.7959 148.035 52.5383C147.604 51.9713 147.659 51.4902 148.236 51.0263C149.466 50.0298 150.678 48.9989 151.999 48.1141C153.238 47.2808 154.559 46.542 155.918 45.9062C157.303 45.2534 158.781 44.7637 160.222 44.2225C161.543 43.7328 162.864 43.2603 164.204 42.8222C164.993 42.5645 165.81 42.3583 166.627 42.2037C168.673 41.7999 170.719 41.4133 172.775 41.0698C174.289 40.812 175.821 40.6316 177.345 40.434C179.456 40.1591 181.585 40.1763 183.704 40.3138C185.319 40.4254 186.925 40.666 188.449 41.2243C190.063 41.8085 191.294 42.8137 191.77 44.4029C192 45.1761 191.881 46.0094 191.596 46.7997C191.266 47.7103 190.89 48.5866 190.275 49.3597C189.613 50.1844 189.091 51.1208 188.21 51.7737C187.944 51.9713 187.568 52.0486 187.219 52.1173C187.082 52.1431 186.833 52.0142 186.778 51.894C186.732 51.7909 186.843 51.5847 186.943 51.4645C187.531 50.717 188.192 50.0126 188.724 49.2395C189.559 48.0367 190.247 46.7653 190.412 45.3049C190.495 44.6005 190.174 44.0592 189.678 43.5782C188.907 42.8222 187.888 42.4957 186.843 42.2638C185.64 41.9975 184.42 41.7999 183.172 41.8944C182.997 41.9116 182.805 41.8343 182.631 41.8429C182.043 41.8515 181.447 41.8858 180.86 41.903C180.07 41.9203 179.272 41.8858 178.483 41.946C177.482 42.0233 176.491 42.1607 175.5 42.2896C174.583 42.4099 173.665 42.5473 172.747 42.6933C171.656 42.8737 170.564 43.0627 169.472 43.2603C168.581 43.4236 167.691 43.5954 166.81 43.7844C166.397 43.8703 165.994 44.0077 165.59 44.1366C163.938 44.6607 162.267 45.1675 160.634 45.7431C159.295 46.2156 157.973 46.7224 156.688 47.3066C155.56 47.822 154.495 48.4663 153.421 49.0848C152.788 49.4456 152.183 49.8494 151.595 50.2789C150.98 50.717 150.43 51.2153 149.796 51.7393Z" fill="black"/>
<path d="M170.729 5.21225C170.729 4.05251 170.729 2.89277 170.729 1.73304C170.729 1.18323 170.958 0.88256 171.398 0.865378C171.71 0.856787 172.233 1.23477 172.261 1.5784C172.307 2.23129 172.289 2.88418 172.279 3.53707C172.279 3.6917 172.197 3.84634 172.215 4.00096C172.408 5.91668 172.142 7.85817 172.601 9.76529C172.701 10.1776 172.674 10.6158 172.72 11.0453C172.839 12.0332 172.986 13.0211 173.115 14.0091C173.234 14.9712 173.288 15.9419 173.491 16.8869C173.628 17.557 173.362 18.1669 173.39 18.8113C173.399 18.9401 173.326 19.1119 173.234 19.2064C173.096 19.3438 172.885 19.5157 172.729 19.4985C172.591 19.4813 172.417 19.2322 172.389 19.069C172.151 17.7203 171.939 16.3629 171.71 15.0056C171.49 13.6826 171.224 12.3597 171.05 11.0281C170.894 9.79103 170.82 8.55401 170.747 7.30836C170.701 6.61252 170.737 5.91668 170.729 5.21225Z" fill="black"/>
<path d="M176.419 22.6855C176.437 23.201 176.234 23.4415 175.804 23.4586C175.335 23.4759 174.867 22.969 174.858 22.4364C174.849 21.9982 175.106 21.7663 175.601 21.7492C176.061 21.7406 176.4 22.1272 176.419 22.6855Z" fill="black"/>
<path d="M182.383 13.2358C182.814 13.2358 183.181 13.5966 183.181 14.009C183.181 14.3354 182.631 14.8508 182.281 14.8594C181.897 14.8594 181.475 14.4128 181.475 14.009C181.465 13.5708 181.869 13.2358 182.383 13.2358Z" fill="black"/>
<path d="M181.969 25.1427C182.236 25.1942 182.484 25.2457 182.731 25.2887C182.53 25.1512 182.346 25.1255 182.19 25.1255C182.116 25.1255 182.043 25.1341 181.969 25.1427Z" fill="black"/>
<path d="M217.496 35.669C216.488 35.669 215.704 35.5134 215.143 35.2022C214.584 34.8912 214.185 34.4103 213.946 33.7597C213.723 33.095 213.61 32.211 213.61 31.1079V22.9404L208.36 34.7143H207.939L202.479 22.7282V34.7143H201.639V20.7129H203.634L208.675 31.7443L213.61 20.7129H215.501V31.1079C215.501 32.4232 215.662 33.4415 215.984 34.1628C216.32 34.884 216.824 35.2447 217.496 35.2447V35.669Z" fill="black"/>
<path d="M225.092 35.1386C223.79 35.1386 222.643 34.8133 221.648 34.1627C220.668 33.5122 219.912 32.6212 219.379 31.4897C218.848 30.3583 218.581 29.0996 218.581 27.7136C218.581 26.3276 218.848 25.0689 219.379 23.9374C219.912 22.806 220.668 21.915 221.648 21.2644C222.643 20.6139 223.79 20.2886 225.092 20.2886C226.394 20.2886 227.536 20.6139 228.516 21.2644C229.511 21.915 230.273 22.806 230.805 23.9374C231.338 25.0689 231.603 26.3276 231.603 27.7136C231.603 29.0996 231.338 30.3583 230.805 31.4897C230.273 32.6212 229.511 33.5122 228.516 34.1627C227.536 34.8133 226.394 35.1386 225.092 35.1386ZM225.092 34.29C226.003 34.29 226.787 34.0213 227.445 33.4839C228.117 32.9465 228.628 32.1898 228.978 31.2139C229.328 30.224 229.503 29.0572 229.503 27.7136C229.503 26.37 229.328 25.2103 228.978 24.2344C228.628 23.2445 228.117 22.4808 227.445 21.9433C226.787 21.4059 226.003 21.1371 225.092 21.1371C224.182 21.1371 223.391 21.4059 222.719 21.9433C222.061 22.4808 221.557 23.2445 221.207 24.2344C220.857 25.2103 220.682 26.37 220.682 27.7136C220.682 29.0572 220.857 30.224 221.207 31.2139C221.557 32.1898 222.061 32.9465 222.719 33.4839C223.391 34.0213 224.182 34.29 225.092 34.29Z" fill="black"/>
<path d="M236.328 34.7143C235.81 34.7143 235.417 34.6507 235.152 34.5234C234.9 34.382 234.717 34.1345 234.606 33.7809C234.493 33.4274 234.438 32.8899 234.438 32.1686V20.7129H236.328V32.1686C236.328 32.8899 236.425 33.4274 236.622 33.7809C236.818 34.1203 237.21 34.29 237.798 34.29H238.218V34.7143H236.328Z" fill="black"/>
<path d="M241.708 34.7143H240.867V23.2586C240.867 22.5797 240.72 22.0565 240.426 21.6887C240.147 21.3211 239.664 21.1372 238.977 21.1372H238.767V20.7129H240.132C240.777 20.7129 241.323 20.819 241.771 21.0311C242.218 21.2432 242.617 21.5615 242.968 21.9857L250.319 31.214V20.7129H251.159V34.9265H250.739L241.708 23.5768V34.7143Z" fill="black"/>
<path d="M260.37 34.9265C259.026 34.9265 257.962 34.7002 257.177 34.2476C256.393 33.7809 255.833 33.095 255.497 32.1898C255.175 31.2847 255.014 30.1108 255.014 28.6682V23.2586C255.014 22.5373 254.917 22.007 254.72 21.6675C254.524 21.314 254.132 21.1372 253.544 21.1372H253.124V20.7129H255.014C255.532 20.7129 255.917 20.7837 256.169 20.925C256.435 21.0523 256.624 21.2928 256.736 21.6463C256.849 21.9999 256.904 22.5373 256.904 23.2586V29.3047C256.904 30.8745 257.192 32.0625 257.765 32.8687C258.34 33.6748 259.292 34.0779 260.622 34.0779C261.686 34.0779 262.526 33.887 263.142 33.5051C263.772 33.1232 264.221 32.5434 264.486 31.7655C264.753 30.9877 264.885 29.9553 264.885 28.6682V20.7129H265.726V28.6682C265.726 30.1392 265.572 31.3272 265.263 32.2322C264.956 33.1232 264.41 33.7951 263.625 34.2476C262.856 34.7002 261.77 34.9265 260.37 34.9265Z" fill="black"/>
<path d="M269.58 23.2586C269.58 22.5373 269.482 22.007 269.286 21.6675C269.091 21.314 268.698 21.1372 268.11 21.1372H267.69V20.7129H273.193C275.909 20.7129 277.961 21.3211 279.347 22.5373C280.747 23.7537 281.447 25.4508 281.447 27.6287C281.447 29.0289 281.153 30.2665 280.565 31.3412C279.977 32.402 279.102 33.2293 277.94 33.8233C276.791 34.4173 275.392 34.7143 273.739 34.7143H269.58V23.2586ZM273.676 33.9718C274.712 33.9718 275.644 33.7172 276.469 33.2081C277.31 32.6849 277.967 31.9565 278.444 31.023C278.92 30.0755 279.158 28.9724 279.158 27.7136C279.158 26.4832 278.92 25.3942 278.444 24.4466C277.982 23.4991 277.331 22.7636 276.49 22.2403C275.65 21.7171 274.698 21.4554 273.634 21.4554C272.962 21.4554 272.262 21.5686 271.534 21.7948V33.696C272.318 33.8799 273.032 33.9718 273.676 33.9718Z" fill="black"/>
<path d="M284.451 23.2586C284.451 22.5373 284.353 22.007 284.157 21.6675C283.961 21.314 283.568 21.1372 282.98 21.1372H282.56V20.7129H288.063C290.78 20.7129 292.831 21.3211 294.217 22.5373C295.618 23.7537 296.317 25.4508 296.317 27.6287C296.317 29.0289 296.023 30.2665 295.435 31.3412C294.847 32.402 293.973 33.2293 292.81 33.8233C291.662 34.4173 290.262 34.7143 288.609 34.7143H284.451V23.2586ZM288.546 33.9718C289.583 33.9718 290.514 33.7172 291.34 33.2081C292.18 32.6849 292.838 31.9565 293.314 31.023C293.79 30.0755 294.028 28.9724 294.028 27.7136C294.028 26.4832 293.79 25.3942 293.314 24.4466C292.852 23.4991 292.201 22.7636 291.361 22.2403C290.52 21.7171 289.569 21.4554 288.504 21.4554C287.832 21.4554 287.132 21.5686 286.404 21.7948V33.696C287.189 33.8799 287.903 33.9718 288.546 33.9718Z" fill="black"/>
<path d="M300.998 34.7143C300.48 34.7143 300.087 34.6507 299.822 34.5234C299.57 34.382 299.388 34.1345 299.276 33.7809C299.163 33.4274 299.108 32.8899 299.108 32.1686V20.7129H300.998V32.1686C300.998 32.8899 301.096 33.4274 301.292 33.7809C301.488 34.1203 301.88 34.29 302.468 34.29H302.888V34.7143H300.998Z" fill="black"/>
<path d="M306.378 34.7143H305.538V23.2586C305.538 22.5797 305.391 22.0565 305.097 21.6887C304.817 21.3211 304.334 21.1372 303.647 21.1372H303.437V20.7129H304.802C305.447 20.7129 305.993 20.819 306.441 21.0311C306.889 21.2432 307.288 21.5615 307.638 21.9857L314.989 31.214V20.7129H315.829V34.9265H315.409L306.378 23.5768V34.7143Z" fill="black"/>
<path d="M7.53751 35.1386C6.16531 35.1386 4.93313 34.7991 3.84098 34.1203C2.76283 33.4414 1.91571 32.5222 1.29961 31.3624C0.697528 30.1886 0.396484 28.9016 0.396484 27.5014C0.396484 26.1579 0.662523 24.9416 1.1946 23.8526C1.72668 22.7494 2.48279 21.8796 3.46292 21.2432C4.45707 20.6068 5.60523 20.2886 6.90742 20.2886C8.1116 20.2886 9.14774 20.4512 10.0159 20.7765C10.898 21.0877 11.542 21.4907 11.9482 21.9857C12.1721 22.2686 12.3122 22.6434 12.3682 23.1101C12.4382 23.5768 12.4732 24.1567 12.4732 24.8496H12.0532C11.7871 23.6051 11.283 22.6787 10.541 22.0706C9.79888 21.4483 8.79769 21.1371 7.53751 21.1371C6.40335 21.1371 5.45821 21.4413 4.7021 22.0494C3.94599 22.6434 3.38592 23.4212 3.02186 24.3829C2.67182 25.3447 2.49678 26.3842 2.49678 27.5014C2.49678 29.8916 2.95885 31.6241 3.88298 32.6989C4.80712 33.7596 6.02529 34.29 7.53751 34.29C8.25161 34.29 8.8607 34.2264 9.36477 34.0991C9.86886 33.9718 10.345 33.788 10.793 33.5475V29.8562C10.793 29.3754 10.87 28.9582 11.024 28.6046C11.178 28.2511 11.5071 27.9611 12.0112 27.7348C12.5293 27.4944 13.2783 27.3741 14.2585 27.3741V27.7984C13.6284 27.7984 13.2083 27.9611 12.9983 28.2864C12.7883 28.6117 12.6833 29.1209 12.6833 29.8138V33.8021C11.9272 34.2688 11.136 34.6082 10.3099 34.8204C9.48379 35.0325 8.55966 35.1386 7.53751 35.1386Z" fill="black"/>
<path d="M16.8151 23.2586C16.8151 22.5373 16.717 22.007 16.521 21.6675C16.3249 21.314 15.9329 21.1372 15.3449 21.1372H14.9248V20.7129H16.8151C17.3331 20.7129 17.7182 20.7837 17.9702 20.925C18.2362 21.0523 18.4252 21.2928 18.5373 21.6463C18.6493 21.9999 18.7053 22.5373 18.7053 23.2586V27.0772H25.0063V20.7129H26.8965V32.1686C26.8965 32.8899 26.9945 33.4274 27.1906 33.7809C27.3866 34.1203 27.7787 34.29 28.3667 34.29H28.7868V34.7143H26.8965C26.3784 34.7143 25.9863 34.6507 25.7204 34.5234C25.4683 34.382 25.2863 34.1345 25.1743 33.7809C25.0622 33.4274 25.0063 32.8899 25.0063 32.1686V27.9257H18.7053V34.7143H16.8151V23.2586Z" fill="black"/>
<path d="M42.0718 34.8204C41.3997 34.8204 40.7346 34.6366 40.0765 34.2688C39.4183 33.887 38.8934 33.1516 38.5013 32.0625L37.9762 30.6836H32.0954L30.4151 34.7143H29.47L35.3508 20.7129H35.9809L40.6016 32.0625C40.9517 32.8829 41.2806 33.4486 41.5887 33.7597C41.8967 34.0567 42.3379 34.2335 42.9119 34.29V34.7143C42.6599 34.7851 42.3798 34.8204 42.0718 34.8204ZM37.5561 29.835L35.0358 23.6829L32.4104 29.835H37.5561Z" fill="black"/>
<path d="M51.5601 21.5615H46.5194C44.7692 21.5615 43.894 22.3747 43.894 24.0011H43.474V22.41C43.474 21.2786 44.0691 20.7129 45.2592 20.7129H54.3955L45.4692 33.8657H54.0805V34.7143H42.8439V34.29L51.5601 21.5615Z" fill="black"/>
<path d="M67.8128 34.8204C67.1407 34.8204 66.4755 34.6366 65.8175 34.2688C65.1593 33.887 64.6342 33.1516 64.2422 32.0625L63.7172 30.6836H57.8363L56.1561 34.7143H55.2109L61.0918 20.7129H61.7219L66.3425 32.0625C66.6925 32.8829 67.0216 33.4486 67.3297 33.7597C67.6377 34.0567 68.0787 34.2335 68.6529 34.29V34.7143C68.4008 34.7851 68.1207 34.8204 67.8128 34.8204ZM63.2971 29.835L60.7767 23.6829L58.1514 29.835H63.2971Z" fill="black"/>
<path d="M70.3071 23.2586C70.3071 22.5373 70.2092 22.007 70.0131 21.6675C69.8171 21.314 69.425 21.1372 68.8369 21.1372H68.4169V20.7129H70.3071C70.8253 20.7129 71.2103 20.7837 71.4623 20.925C71.7284 21.0523 71.9174 21.2928 72.0294 21.6463C72.1415 21.9999 72.1974 22.5373 72.1974 23.2586V33.8657H79.6535V34.7143H70.3071V23.2586Z" fill="black"/>
<path d="M83.2649 34.7143C82.7468 34.7143 82.3548 34.6507 82.0887 34.5234C81.8367 34.382 81.6546 34.1345 81.5427 33.7809C81.4307 33.4274 81.3746 32.8899 81.3746 32.1686V20.7129H83.2649V32.1686C83.2649 32.8899 83.363 33.4274 83.5589 33.7809C83.7549 34.1203 84.147 34.29 84.7351 34.29H85.1552V34.7143H83.2649Z" fill="black"/>
</g>
<defs>
<clipPath id="clip0_221_97">
<rect width="316" height="54" fill="white"/>
</clipPath>
</defs>
</svg>
